<?xml version="1.0" standalone="no"?><!DOCTYPE svg PUBLIC "-//W3C//DTD SVG 1.1//EN" "http://www.w3.org/Graphics/SVG/1.1/DTD/svg11.dtd"><svg t="1646191469369" class="icon" viewBox="0 0 1024 1024" version="1.1" xmlns="http://www.w3.org/2000/svg" p-id="4387" xmlns:xlink="http://www.w3.org/1999/xlink" width="200" height="200"><defs><style type="text/css"></style></defs><path d="M854.05 685.18h-682a6 6 0 0 1-5.71-7.84l91-282a6 6 0 0 1 5.71-4.16h494a6 6 0 0 1 5.67 4l97 282a6 6 0 0 1-5.67 8z m-673.76-12h665.35l-92.87-270H267.42z" fill="#d81e06" p-id="4388"></path><path d="M283.05 781.68c-43.65 0-79.05-6.33-97.13-17.38-16.63-10.16-25.23-28.65-24.87-53.46a124.87 124.87 0 0 1 5.3-33.53 6 6 0 0 1 11.4 3.74c-0.26 0.81-17 53.82 14.43 73 34.25 20.95 143.09 20.66 200.82-0.5 61.5-22.55 232.79-54.33 306.55-48.35 19.24 1.56 39.23 5.83 58.55 10 34.81 7.45 67.69 14.48 81.92 1.69 7.35-6.61 10-18.73 8.08-37.06a6 6 0 0 1 11.9-1.27c2.35 22.42-1.58 37.87-12 47.23-18.78 16.88-52.92 9.58-92.45 1.12-18.95-4.05-38.54-8.25-57-9.74-72.41-5.87-240.88 25.45-301.45 47.65-28.78 10.56-71.43 16.86-114.05 16.86z" fill="#d81e06" p-id="4389"></path><path d="M843.05 827.18h-668a6 6 0 0 1-6-6v-76a6 6 0 0 1 12 0v70h656v-93a6 6 0 0 1 12 0v99a6 6 0 0 1-6 6zM747.38 403.18H273.9a6 6 0 0 1-5.68-7.94l26-76.13a6 6 0 0 1 5.68-4.11h421.48a6 6 0 0 1 5.68 4.06l26 76.13a6 6 0 0 1-5.68 7.94z m-465.09-12H739L717.09 327h-412.9z" fill="#d81e06" p-id="4390"></path><path d="M721.38 327H299.9a6 6 0 0 1-6-6v-76.09a6 6 0 0 1 2.22-4.66c0.65-0.52 16.22-13 50.67-25.35 31.37-11.28 85.3-24.72 164.06-24.72 154.65 0 212.08 48.14 214.44 50.19a6 6 0 0 1 2.07 4.54V321a6 6 0 0 1-5.98 6zM305.9 315h409.48v-67.14c-5-3.62-19.07-12.85-44.4-22-29.88-10.8-81.92-23.67-160.12-23.67-76.55 0-128.83 12.9-159.21 23.73-25.71 9.16-40.48 18.41-45.75 22.06zM487.27 400.49a3 3 0 0 1-3-3c0-17.86-7.51-40.83-7.59-41.06a3 3 0 0 1-0.15-0.94v-0.72a3 3 0 0 1 0.26-1.22l2.76-6.18-6.44 2.74a3 3 0 0 1-1.17 0.24h-0.64a3 3 0 0 1-0.87-0.13c-0.3-0.09-30-9-59.94-9-31.46 0-59.08 8.89-59.36 9a3 3 0 0 1-0.93 0.15h-0.54a3 3 0 0 1-1.24-0.27l-7.25-3.28a0.12 0.12 0 0 0-0.13 0.07l3.15 7a3 3 0 0 1 0.27 1.23v0.62a3 3 0 0 1-0.17 1c-0.07 0.21-7.42 21.6-7.42 40.5a3 3 0 0 1-6 0c0-18.06 6.1-37.5 7.48-41.68l-2.77-6.13a6.09 6.09 0 0 1 8.06-8.05l6.43 2.91a220.06 220.06 0 0 1 60.42-9c28.67 0 56.26 7.67 61 9.06l7.83-3.33a5.09 5.09 0 0 1 6.64 6.77l-3.37 7.54c1.32 4.13 7.67 25 7.67 42.25a3 3 0 0 1-2.99 2.91zM685.55 400.49a3 3 0 0 1-3-3c0-17.86-7.51-40.83-7.59-41.06a3 3 0 0 1-0.15-0.94v-0.72a3 3 0 0 1 0.26-1.22l2.76-6.18-6.44 2.74a3 3 0 0 1-1.17 0.24h-0.64a3 3 0 0 1-0.87-0.13c-0.3-0.09-30-9-59.94-9-31.46 0-59.08 8.89-59.36 9a3 3 0 0 1-0.93 0.15h-0.54a3 3 0 0 1-1.24-0.27l-7.25-3.28a0.12 0.12 0 0 0-0.13 0.07l3.15 7a3 3 0 0 1 0.27 1.23v0.62a3 3 0 0 1-0.17 1c-0.07 0.21-7.42 21.59-7.42 40.5a3 3 0 0 1-6 0c0-18.06 6.1-37.5 7.48-41.68l-2.77-6.13a6.09 6.09 0 0 1 8.06-8.05l6.43 2.91a220.05 220.05 0 0 1 60.42-9c28.67 0 56.26 7.67 61 9.06l7.83-3.33a5.09 5.09 0 0 1 6.64 6.77l-3.37 7.54c1.32 4.13 7.67 25 7.67 42.25a3 3 0 0 1-2.99 2.91zM565.11 626.83a6 6 0 0 1-1.53-11.8c32.72-8.65 61.21-22.47 84.66-41.07a191.53 191.53 0 0 0 46.32-53.23c20.46-34.84 23.54-65.15 23.57-65.45a6 6 0 1 1 11.95 1.14c-0.13 1.34-3.38 33.28-25.17 70.39a203.47 203.47 0 0 1-49.21 56.56c-24.76 19.63-54.7 34.19-89.06 43.26a6 6 0 0 1-1.53 0.2zM256.75 615.55a6 6 0 0 1-6-6.62c3.17-30.25 14.83-71.9 34.67-123.8a6 6 0 0 1 11.21 4.29c-19.2 50.21-30.93 92-33.95 120.76a6 6 0 0 1-5.93 5.37z" fill="#d81e06" p-id="4391"></path><path d="M365.29 382.69a3 3 0 0 1-3-2.48 36.22 36.22 0 0 1 3.71-22.59 3 3 0 0 1 5.2 3 30.6 30.6 0 0 0-3 18.55 3 3 0 0 1-2.43 3.48 3.06 3.06 0 0 1-0.48 0.04zM647.63 385.35a3 3 0 0 1-1.6-5.54c0.3-0.19 6.6-4.33 6.6-12a3 3 0 0 1 6 0c0 11-9 16.8-9.41 17a3 3 0 0 1-1.59 0.54z" fill="#d81e06" p-id="4392"></path></svg>