<?xml version="1.0" standalone="no"?><!DOCTYPE svg PUBLIC "-//W3C//DTD SVG 1.1//EN" "http://www.w3.org/Graphics/SVG/1.1/DTD/svg11.dtd"><svg t="1646190681363" class="icon" viewBox="0 0 1024 1024" version="1.1" xmlns="http://www.w3.org/2000/svg" p-id="2194" xmlns:xlink="http://www.w3.org/1999/xlink" width="200" height="200"><defs><style type="text/css"></style></defs><path d="M98.242746 18.618182m111.709091 0l595.781818 0q111.709091 0 111.709091 111.709091l0 670.254545q0 111.709091-111.709091 111.709091l-595.781818 0q-111.709091 0-111.709091-111.709091l0-670.254545q0-111.709091 111.709091-111.709091Z" fill="#FFFFFF" p-id="2195"></path><path d="M805.733655 0H209.951837a130.327273 130.327273 0 0 0-130.327273 130.327273v670.254545a130.327273 130.327273 0 0 0 130.327273 130.327273h595.781818a130.327273 130.327273 0 0 0 130.327273-130.327273V130.327273a130.327273 130.327273 0 0 0-130.327273-130.327273zM209.951837 37.236364h595.781818a93.090909 93.090909 0 0 1 93.090909 93.090909v670.254545a93.090909 93.090909 0 0 1-93.090909 93.090909H209.951837a93.090909 93.090909 0 0 1-93.090909-93.090909V130.327273a93.090909 93.090909 0 0 1 93.090909-93.090909z" fill="#00AC97" p-id="2196"></path><path d="M451.988201 111.709091H228.570019a55.854545 55.854545 0 0 0-55.854546 55.854545v74.472728a55.854545 55.854545 0 0 0 55.854546 55.854545h223.418182a55.854545 55.854545 0 0 0 55.854545-55.854545v-74.472728a55.854545 55.854545 0 0 0-55.854545-55.854545z m-223.418182 37.236364h223.418182a18.618182 18.618182 0 0 1 18.618182 18.618181v74.472728a18.618182 18.618182 0 0 1-18.618182 18.618181H228.570019a18.618182 18.618182 0 0 1-18.618182-18.618181v-74.472728a18.618182 18.618182 0 0 1 18.618182-18.618181zM787.115473 111.709091H563.697292a55.854545 55.854545 0 0 0-55.854546 55.854545v74.472728a55.854545 55.854545 0 0 0 55.854546 55.854545h223.418181a55.854545 55.854545 0 0 0 55.854546-55.854545v-74.472728a55.854545 55.854545 0 0 0-55.854546-55.854545z m-223.418181 37.236364h223.418181a18.618182 18.618182 0 0 1 18.618182 18.618181v74.472728a18.618182 18.618182 0 0 1-18.618182 18.618181H563.697292a18.618182 18.618182 0 0 1-18.618182-18.618181v-74.472728a18.618182 18.618182 0 0 1 18.618182-18.618181z" fill="#00AC97" p-id="2197"></path><path d="M61.006383 223.418182m37.236363 0l819.2 0q37.236364 0 37.236364 37.236363l0 707.49091q0 37.236364-37.236364 37.236363l-819.2 0q-37.236364 0-37.236363-37.236363l0-707.49091q0-37.236364 37.236363-37.236363Z" fill="#DDF6F3" p-id="2198"></path><path d="M917.442746 204.8H98.242746a55.854545 55.854545 0 0 0-55.854545 55.854545v707.49091a55.854545 55.854545 0 0 0 55.854545 55.854545h819.2a55.854545 55.854545 0 0 0 55.854546-55.854545V260.654545a55.854545 55.854545 0 0 0-55.854546-55.854545z m-819.2 37.236364h819.2a18.618182 18.618182 0 0 1 18.618182 18.618181v707.49091a18.618182 18.618182 0 0 1-18.618182 18.618181H98.242746a18.618182 18.618182 0 0 1-18.618182-18.618181V260.654545a18.618182 18.618182 0 0 1 18.618182-18.618181z" fill="#00AC97" p-id="2199"></path><path d="M61.006383 335.127273h893.672727v558.545454H61.006383z" fill="#FFFFFF" p-id="2200"></path><path d="M954.67911 316.509091H61.006383a18.618182 18.618182 0 0 0-18.618182 18.618182v558.545454a18.618182 18.618182 0 0 0 18.618182 18.618182h893.672727a18.618182 18.618182 0 0 0 18.618182-18.618182V335.127273a18.618182 18.618182 0 0 0-18.618182-18.618182z m-18.618182 37.236364v521.30909H79.624564V353.745455h856.436364z" fill="#00AC97" p-id="2201"></path><path d="M963.988201 465.454545a9.309091 9.309091 0 1 1-18.618182 0v-74.472727a9.309091 9.309091 0 1 1 18.618182 0v74.472727z m0 130.327273a9.309091 9.309091 0 1 1-18.618182 0v-74.472727a9.309091 9.309091 0 1 1 18.618182 0v74.472727z m0 130.327273a9.309091 9.309091 0 1 1-18.618182 0v-74.472727a9.309091 9.309091 0 1 1 18.618182 0v74.472727zM936.060928 847.127273a9.309091 9.309091 0 1 1 0-18.618182h18.618182l-9.309091 9.309091v-55.854546a9.309091 9.309091 0 1 1 18.618182 0v55.854546a9.309091 9.309091 0 0 1-9.309091 9.309091h-18.618182z m-130.327273 0a9.309091 9.309091 0 1 1 0-18.618182h74.472728a9.309091 9.309091 0 1 1 0 18.618182h-74.472728z m-130.327272 0a9.309091 9.309091 0 1 1 0-18.618182h74.472727a9.309091 9.309091 0 1 1 0 18.618182h-74.472727z m-130.327273 0a9.309091 9.309091 0 1 1 0-18.618182h74.472727a9.309091 9.309091 0 1 1 0 18.618182h-74.472727z m-130.327273 0a9.309091 9.309091 0 1 1 0-18.618182h74.472727a9.309091 9.309091 0 1 1 0 18.618182h-74.472727z m-130.327273 0a9.309091 9.309091 0 1 1 0-18.618182h74.472728a9.309091 9.309091 0 1 1 0 18.618182h-74.472728z m-130.327272 0a9.309091 9.309091 0 1 1 0-18.618182h74.472727a9.309091 9.309091 0 1 1 0 18.618182h-74.472727zM51.697292 800.581818a9.309091 9.309091 0 1 1 18.618181 0v37.236364l-9.30909-9.309091h37.236363a9.309091 9.309091 0 1 1 0 18.618182H61.006383a9.309091 9.309091 0 0 1-9.309091-9.309091v-37.236364z m0-130.327273a9.309091 9.309091 0 1 1 18.618181 0v74.472728a9.309091 9.309091 0 1 1-18.618181 0v-74.472728z m0-130.327272a9.309091 9.309091 0 1 1 18.618181 0v74.472727a9.309091 9.309091 0 1 1-18.618181 0v-74.472727z m0-130.327273a9.309091 9.309091 0 1 1 18.618181 0v74.472727a9.309091 9.309091 0 1 1-18.618181 0v-74.472727z m121.018181-27.927273a9.309091 9.309091 0 1 1 0 18.618182h-74.472727a9.309091 9.309091 0 1 1 0-18.618182h74.472727z m130.327273 0a9.309091 9.309091 0 1 1 0 18.618182h-74.472727a9.309091 9.309091 0 1 1 0-18.618182h74.472727z m130.327273 0a9.309091 9.309091 0 1 1 0 18.618182h-74.472727a9.309091 9.309091 0 1 1 0-18.618182h74.472727z m130.327273 0a9.309091 9.309091 0 1 1 0 18.618182h-74.472728a9.309091 9.309091 0 1 1 0-18.618182h74.472728z m130.327272 0a9.309091 9.309091 0 1 1 0 18.618182h-74.472727a9.309091 9.309091 0 1 1 0-18.618182h74.472727z m130.327273 0a9.309091 9.309091 0 1 1 0 18.618182h-74.472727a9.309091 9.309091 0 1 1 0-18.618182h74.472727z m130.327273 0a9.309091 9.309091 0 1 1 0 18.618182h-74.472727a9.309091 9.309091 0 1 1 0-18.618182h74.472727z" fill="#00AC97" p-id="2202"></path></svg>